<svg width="1193" height="612" viewBox="0 0 1193 612" fill="none" xmlns="http://www.w3.org/2000/svg">
<path d="M5.17683 2.58842C5.17683 4.31403 4.31403 5.17683 2.58842 5.17683C0.862805 5.17683 0 4.31403 0 2.58842C0 1.29421 1.29421 0 2.58842 0C3.88262 0 5.17683 1.29421 5.17683 2.58842Z" fill="#E5E5E5"/>
<path d="M60.3966 2.58842C60.3966 3.88262 59.1023 5.17683 57.8081 5.17683C56.5139 5.17683 55.2197 3.88262 55.2197 2.58842C55.2197 1.29421 56.0825 0 57.8081 0C59.1023 0 60.3966 1.29421 60.3966 2.58842Z" fill="#E5E5E5"/>
<path d="M115.616 2.58842C115.616 3.88262 114.322 5.17683 113.027 5.17683C111.733 5.17683 110.439 3.88262 110.439 2.58842C110.439 1.29421 111.733 0 113.027 0C114.322 0 115.616 1.29421 115.616 2.58842Z" fill="#E5E5E5"/>
<path d="M170.836 2.58842C170.836 3.88262 169.541 5.17683 168.247 5.17683C166.953 5.17683 165.659 3.88262 165.659 2.58842C165.659 1.29421 166.953 0 168.247 0C169.541 0 170.836 1.29421 170.836 2.58842Z" fill="#E5E5E5"/>
<path d="M225.623 2.58842C225.623 3.88262 224.329 5.17683 223.035 5.17683C221.741 5.17683 220.446 3.88262 220.446 2.58842C220.446 1.29421 221.741 0 223.035 0C224.329 0 225.623 1.29421 225.623 2.58842Z" fill="#E5E5E5"/>
<path d="M280.843 2.58842C280.843 3.88262 279.549 5.17683 278.254 5.17683C276.96 5.17683 275.666 4.31403 275.666 2.58842C275.666 1.29421 276.96 0 278.254 0C279.549 0 280.843 1.29421 280.843 2.58842Z" fill="#E5E5E5"/>
<path d="M336.063 2.58842C336.063 3.88262 334.769 5.17683 333.474 5.17683C332.18 5.17683 330.455 4.31403 330.455 2.58842C330.455 1.29421 331.749 0 333.043 0C334.337 0 336.063 1.29421 336.063 2.58842Z" fill="#E5E5E5"/>
<path d="M390.851 2.58842C390.851 3.88262 389.556 5.17683 388.262 5.17683C386.968 5.17683 385.674 3.88262 385.674 2.58842C385.674 1.29421 386.968 0 388.262 0C389.988 0 390.851 1.29421 390.851 2.58842Z" fill="#E5E5E5"/>
<path d="M446.07 2.58842C446.07 3.88262 444.776 5.17683 443.482 5.17683C442.188 5.17683 440.894 3.88262 440.894 2.58842C440.894 1.29421 442.188 0 443.482 0C444.776 0 446.07 1.29421 446.07 2.58842Z" fill="#E5E5E5"/>
<path d="M501.29 2.58842C501.29 3.88262 499.996 5.17683 498.702 5.17683C497.407 5.17683 496.113 3.88262 496.113 2.58842C496.113 1.29421 497.407 0 498.702 0C499.996 0 501.29 1.29421 501.29 2.58842Z" fill="#E5E5E5"/>
<path d="M556.509 2.58842C556.509 3.88262 555.215 5.17683 553.921 5.17683C552.627 5.17683 551.333 3.88262 551.333 2.58842C551.333 1.29421 552.627 0 553.921 0C555.215 0 556.509 1.29421 556.509 2.58842Z" fill="#E5E5E5"/>
<path d="M611.298 2.58842C611.298 3.88262 610.004 5.17683 608.71 5.17683C607.415 5.17683 606.121 3.88262 606.121 2.58842C606.121 1.29421 607.415 0 608.71 0C610.435 0 611.298 1.29421 611.298 2.58842Z" fill="#E5E5E5"/>
<path d="M5.17683 57.8081C5.17683 59.1023 4.31403 60.3966 2.58842 60.3966C0.862805 60.3966 0 59.1023 0 57.8081C0 56.5139 1.29421 55.2197 2.58842 55.2197C3.88262 55.2197 5.17683 56.0825 5.17683 57.8081Z" fill="#E5E5E5"/>
<path d="M60.3966 57.8081C60.3966 59.1023 59.1023 60.3966 57.8081 60.3966C56.5139 60.3966 55.2197 59.1023 55.2197 57.8081C55.2197 56.5139 56.5139 55.2197 57.8081 55.2197C59.1023 55.2197 60.3966 56.0825 60.3966 57.8081Z" fill="#E5E5E5"/>
<path d="M115.616 57.8081C115.616 59.1023 114.322 60.3966 113.027 60.3966C111.733 60.3966 110.439 59.1023 110.439 57.8081C110.439 56.5139 111.733 55.2197 113.027 55.2197C114.322 55.2197 115.616 56.0825 115.616 57.8081Z" fill="#E5E5E5"/>
<path d="M170.836 57.8081C170.836 59.1023 169.541 60.3966 168.247 60.3966C166.953 60.3966 165.659 59.1023 165.659 57.8081C165.659 56.5139 166.953 55.2197 168.247 55.2197C169.541 55.2197 170.836 56.0825 170.836 57.8081Z" fill="#E5E5E5"/>
<path d="M225.623 57.8081C225.623 59.1023 224.329 60.3966 223.035 60.3966C221.741 60.3966 220.446 59.1023 220.446 57.8081C220.446 56.5139 221.741 55.2197 223.035 55.2197C224.329 55.2197 225.623 56.0825 225.623 57.8081Z" fill="#E5E5E5"/>
<path d="M280.843 57.8081C280.843 59.1023 279.549 60.3966 278.254 60.3966C276.96 60.3966 275.666 59.1023 275.666 57.8081C275.666 56.5139 276.96 55.2197 278.254 55.2197C279.549 55.2197 280.843 56.0825 280.843 57.8081Z" fill="#E5E5E5"/>
<path d="M336.063 57.8081C336.063 59.1023 334.768 60.3966 333.474 60.3966C332.18 60.3966 330.886 59.1023 330.886 57.8081C330.886 56.5139 332.18 55.2197 333.474 55.2197C334.768 55.2197 336.063 56.0825 336.063 57.8081Z" fill="#E5E5E5"/>
<path d="M390.851 57.8081C390.851 59.1023 389.556 60.3966 388.262 60.3966C386.968 60.3966 385.674 59.1023 385.674 57.8081C385.674 56.5139 386.968 55.2197 388.262 55.2197C389.988 55.2197 390.851 56.0825 390.851 57.8081Z" fill="#E5E5E5"/>
<path d="M446.07 57.8081C446.07 59.1023 444.776 60.3966 443.482 60.3966C442.188 60.3966 440.894 59.1023 440.894 57.8081C440.894 56.5139 442.188 55.2197 443.482 55.2197C444.776 55.2197 446.07 56.0825 446.07 57.8081Z" fill="#E5E5E5"/>
<path d="M501.29 57.8081C501.29 59.1023 499.996 60.3966 498.702 60.3966C497.407 60.3966 496.113 59.1023 496.113 57.8081C496.113 56.5139 497.407 55.2197 498.702 55.2197C499.996 55.2197 501.29 56.0825 501.29 57.8081Z" fill="#E5E5E5"/>
<path d="M556.509 57.8081C556.509 59.1023 555.215 60.3966 553.921 60.3966C552.627 60.3966 551.333 59.1023 551.333 57.8081C551.333 56.5139 552.627 55.2197 553.921 55.2197C555.215 55.2197 556.509 56.0825 556.509 57.8081Z" fill="#E5E5E5"/>
<path d="M611.298 57.8081C611.298 59.1023 610.004 60.3966 608.71 60.3966C607.415 60.3966 606.121 59.1023 606.121 57.8081C606.121 56.5139 607.415 55.2197 608.71 55.2197C610.435 55.2197 611.298 56.0825 611.298 57.8081Z" fill="#E5E5E5"/>
<path d="M5.17683 113.028C5.17683 114.322 3.88262 115.616 2.58842 115.616C1.29421 115.616 0 114.322 0 113.028C0 111.734 1.29421 110.439 2.58842 110.439C3.88262 110.439 5.17683 111.302 5.17683 113.028Z" fill="#E5E5E5"/>
<path d="M60.3966 113.027C60.3966 114.321 59.1023 115.616 57.8081 115.616C56.5139 115.616 55.2197 114.321 55.2197 113.027C55.2197 111.733 56.5139 110.439 57.8081 110.439C59.1023 110.007 60.3966 111.302 60.3966 113.027Z" fill="#E5E5E5"/>
<path d="M115.616 113.027C115.616 114.321 114.322 115.616 113.027 115.616C111.733 115.616 110.439 114.321 110.439 113.027C110.439 111.733 111.733 110.439 113.027 110.439C114.322 110.007 115.616 111.302 115.616 113.027Z" fill="#E5E5E5"/>
<path d="M170.836 113.027C170.836 114.321 169.541 115.616 168.247 115.616C166.953 115.616 165.659 114.321 165.659 113.027C165.659 111.733 166.953 110.439 168.247 110.439C169.541 110.007 170.836 111.302 170.836 113.027Z" fill="#E5E5E5"/>
<path d="M225.623 113.027C225.623 114.321 224.329 115.616 223.035 115.616C221.741 115.616 220.446 114.321 220.446 113.027C220.446 111.733 221.741 110.439 223.035 110.439C224.329 110.007 225.623 111.302 225.623 113.027Z" fill="#E5E5E5"/>
<path d="M280.843 113.028C280.843 114.322 279.549 115.616 278.254 115.616C276.96 115.616 275.666 114.322 275.666 113.028C275.666 111.734 276.96 110.439 278.254 110.439C279.549 110.439 280.843 111.302 280.843 113.028Z" fill="#E5E5E5"/>
<path d="M336.063 113.028C336.063 114.322 334.768 115.616 333.474 115.616C332.18 115.616 330.886 114.322 330.886 113.028C330.886 111.734 332.18 110.439 333.474 110.439C334.768 110.439 336.063 111.302 336.063 113.028Z" fill="#E5E5E5"/>
<path d="M390.851 113.027C390.851 114.321 389.556 115.616 388.262 115.616C386.968 115.616 385.674 114.321 385.674 113.027C385.674 111.733 386.968 110.439 388.262 110.439C389.988 110.007 390.851 111.302 390.851 113.027Z" fill="#E5E5E5"/>
<path d="M446.07 113.027C446.07 114.321 444.776 115.616 443.482 115.616C442.188 115.616 440.894 114.321 440.894 113.027C440.894 111.733 442.188 110.439 443.482 110.439C444.776 110.007 446.07 111.302 446.07 113.027Z" fill="#E5E5E5"/>
<path d="M501.29 113.027C501.29 114.321 499.996 115.616 498.702 115.616C497.407 115.616 496.113 114.321 496.113 113.027C496.113 111.733 497.407 110.439 498.702 110.439C499.996 110.007 501.29 111.302 501.29 113.027Z" fill="#E5E5E5"/>
<path d="M556.509 113.027C556.509 114.321 555.215 115.616 553.921 115.616C552.627 115.616 551.333 114.321 551.333 113.027C551.333 111.733 552.627 110.439 553.921 110.439C555.215 110.007 556.509 111.302 556.509 113.027Z" fill="#E5E5E5"/>
<path d="M611.298 113.027C611.298 114.321 610.004 115.616 608.71 115.616C607.415 115.616 606.121 114.321 606.121 113.027C606.121 111.733 607.415 110.439 608.71 110.439C610.435 110.007 611.298 111.302 611.298 113.027Z" fill="#E5E5E5"/>
<path d="M5.17683 167.816C5.17683 169.11 3.88262 170.404 2.58842 170.404C1.29421 170.404 0 169.541 0 167.816C0 166.522 1.29421 165.227 2.58842 165.227C3.88262 165.227 5.17683 166.522 5.17683 167.816Z" fill="#E5E5E5"/>
<path d="M60.3966 167.816C60.3966 169.11 59.1023 170.404 57.8081 170.404C56.5139 170.404 55.2197 169.11 55.2197 167.816C55.2197 166.522 56.5139 165.227 57.8081 165.227C59.1023 165.227 60.3966 166.522 60.3966 167.816Z" fill="#E5E5E5"/>
<path d="M115.616 167.816C115.616 169.11 114.322 170.404 113.027 170.404C111.733 170.404 110.439 169.11 110.439 167.816C110.439 166.522 111.733 165.227 113.027 165.227C114.322 165.227 115.616 166.522 115.616 167.816Z" fill="#E5E5E5"/>
<path d="M170.836 167.816C170.836 169.11 169.541 170.404 168.247 170.404C166.953 170.404 165.659 169.11 165.659 167.816C165.659 166.522 166.953 165.227 168.247 165.227C169.541 165.227 170.836 166.522 170.836 167.816Z" fill="#E5E5E5"/>
<path d="M225.623 167.816C225.623 169.11 224.329 170.404 223.035 170.404C221.741 170.404 220.446 169.11 220.446 167.816C220.446 166.522 221.741 165.227 223.035 165.227C224.329 165.227 225.623 166.522 225.623 167.816Z" fill="#E5E5E5"/>
<path d="M280.843 167.816C280.843 169.11 279.549 170.404 278.254 170.404C276.96 170.404 275.666 169.11 275.666 167.816C275.666 166.522 276.96 165.227 278.254 165.227C279.549 165.227 280.843 166.522 280.843 167.816Z" fill="#E5E5E5"/>
<path d="M336.063 167.816C336.063 169.11 334.768 170.404 333.474 170.404C332.18 170.404 330.886 169.11 330.886 167.816C330.886 166.522 332.18 165.227 333.474 165.227C334.768 165.227 336.063 166.522 336.063 167.816Z" fill="#E5E5E5"/>
<path d="M390.851 167.816C390.851 169.11 389.556 170.404 388.262 170.404C386.968 170.404 385.674 169.11 385.674 167.816C385.674 166.522 386.968 165.227 388.262 165.227C389.988 165.227 390.851 166.522 390.851 167.816Z" fill="#E5E5E5"/>
<path d="M446.07 167.816C446.07 169.11 444.776 170.404 443.482 170.404C442.188 170.404 440.894 169.11 440.894 167.816C440.894 166.522 442.188 165.227 443.482 165.227C444.776 165.227 446.07 166.522 446.07 167.816Z" fill="#E5E5E5"/>
<path d="M501.29 167.816C501.29 169.11 499.996 170.404 498.702 170.404C497.407 170.404 496.113 169.11 496.113 167.816C496.113 166.522 497.407 165.227 498.702 165.227C499.996 165.227 501.29 166.522 501.29 167.816Z" fill="#E5E5E5"/>
<path d="M556.509 167.816C556.509 169.11 555.215 170.404 553.921 170.404C552.627 170.404 551.333 169.11 551.333 167.816C551.333 166.522 552.627 165.227 553.921 165.227C555.215 165.227 556.509 166.522 556.509 167.816Z" fill="#E5E5E5"/>
<path d="M611.298 167.816C611.298 169.11 610.004 170.404 608.71 170.404C607.415 170.404 606.121 169.11 606.121 167.816C606.121 166.522 607.415 165.227 608.71 165.227C610.435 165.227 611.298 166.522 611.298 167.816Z" fill="#E5E5E5"/>
<path d="M5.17683 223.035C5.17683 224.33 3.88262 225.624 2.58842 225.624C1.29421 225.624 0 224.33 0 223.035C0 221.741 1.29421 220.447 2.58842 220.447C3.88262 220.447 5.17683 221.741 5.17683 223.035Z" fill="#E5E5E5"/>
<path d="M60.3966 223.035C60.3966 224.33 59.1023 225.624 57.8081 225.624C56.5139 225.624 55.2197 224.33 55.2197 223.035C55.2197 221.741 56.5139 220.447 57.8081 220.447C59.1023 220.447 60.3966 221.741 60.3966 223.035Z" fill="#E5E5E5"/>
<path d="M115.616 223.035C115.616 224.33 114.322 225.624 113.027 225.624C111.733 225.624 110.439 224.33 110.439 223.035C110.439 221.741 111.733 220.447 113.027 220.447C114.322 220.447 115.616 221.741 115.616 223.035Z" fill="#E5E5E5"/>
<path d="M170.836 223.035C170.836 224.33 169.541 225.624 168.247 225.624C166.953 225.624 165.659 224.33 165.659 223.035C165.659 221.741 166.953 220.447 168.247 220.447C169.541 220.447 170.836 221.741 170.836 223.035Z" fill="#E5E5E5"/>
<path d="M225.623 223.035C225.623 224.33 224.329 225.624 223.035 225.624C221.741 225.624 220.446 224.33 220.446 223.035C220.446 221.741 221.741 220.447 223.035 220.447C224.329 220.447 225.623 221.741 225.623 223.035Z" fill="#E5E5E5"/>
<path d="M280.843 223.035C280.843 224.33 279.549 225.624 278.254 225.624C276.96 225.624 275.666 224.33 275.666 223.035C275.666 221.741 276.96 220.447 278.254 220.447C279.549 220.447 280.843 221.741 280.843 223.035Z" fill="#E5E5E5"/>
<path d="M336.063 223.035C336.063 224.33 334.768 225.624 333.474 225.624C332.18 225.624 330.886 224.33 330.886 223.035C330.886 221.741 332.18 220.447 333.474 220.447C334.768 220.447 336.063 221.741 336.063 223.035Z" fill="#E5E5E5"/>
<path d="M390.851 223.035C390.851 224.33 389.556 225.624 388.262 225.624C386.968 225.624 385.674 224.33 385.674 223.035C385.674 221.741 386.968 220.447 388.262 220.447C389.988 220.447 390.851 221.741 390.851 223.035Z" fill="#E5E5E5"/>
<path d="M446.07 223.035C446.07 224.33 444.776 225.624 443.482 225.624C442.188 225.624 440.894 224.33 440.894 223.035C440.894 221.741 442.188 220.447 443.482 220.447C444.776 220.447 446.07 221.741 446.07 223.035Z" fill="#E5E5E5"/>
<path d="M501.29 223.035C501.29 224.33 499.996 225.624 498.702 225.624C497.407 225.624 496.113 224.33 496.113 223.035C496.113 221.741 497.407 220.447 498.702 220.447C499.996 220.447 501.29 221.741 501.29 223.035Z" fill="#E5E5E5"/>
<path d="M556.509 223.035C556.509 224.33 555.215 225.624 553.921 225.624C552.627 225.624 551.333 224.33 551.333 223.035C551.333 221.741 552.627 220.447 553.921 220.447C555.215 220.447 556.509 221.741 556.509 223.035Z" fill="#E5E5E5"/>
<path d="M611.298 223.035C611.298 224.33 610.004 225.624 608.71 225.624C607.415 225.624 606.121 224.33 606.121 223.035C606.121 221.741 607.415 220.447 608.71 220.447C610.435 220.447 611.298 221.741 611.298 223.035Z" fill="#E5E5E5"/>
<path d="M5.17683 278.254C5.17683 279.549 3.88262 280.843 2.58842 280.843C1.29421 280.843 0 279.549 0 278.254C0 276.96 1.29421 275.666 2.58842 275.666C3.88262 275.666 5.17683 276.529 5.17683 278.254Z" fill="#E5E5E5"/>
<path d="M60.3966 278.254C60.3966 279.549 59.1023 280.843 57.8081 280.843C56.5139 280.843 55.2197 279.549 55.2197 278.254C55.2197 276.96 56.5139 275.666 57.8081 275.666C59.1023 275.666 60.3966 276.529 60.3966 278.254Z" fill="#E5E5E5"/>
<path d="M115.616 278.254C115.616 279.549 114.322 280.843 113.027 280.843C111.733 280.843 110.439 279.549 110.439 278.254C110.439 276.96 111.733 275.666 113.027 275.666C114.322 275.666 115.616 276.529 115.616 278.254Z" fill="#E5E5E5"/>
<path d="M170.836 278.254C170.836 279.549 169.541 280.843 168.247 280.843C166.953 280.843 165.659 279.549 165.659 278.254C165.659 276.96 166.953 275.666 168.247 275.666C169.541 275.666 170.836 276.529 170.836 278.254Z" fill="#E5E5E5"/>
<path d="M225.623 278.254C225.623 279.549 224.329 280.843 223.035 280.843C221.741 280.843 220.446 279.549 220.446 278.254C220.446 276.96 221.741 275.666 223.035 275.666C224.329 275.666 225.623 276.529 225.623 278.254Z" fill="#E5E5E5"/>
<path d="M280.843 278.254C280.843 279.549 279.549 280.843 278.254 280.843C276.96 280.843 275.666 279.549 275.666 278.254C275.666 276.96 276.96 275.666 278.254 275.666C279.549 275.666 280.843 276.529 280.843 278.254Z" fill="#E5E5E5"/>
<path d="M336.063 278.254C336.063 279.549 334.768 280.843 333.474 280.843C332.18 280.843 330.886 279.549 330.886 278.254C330.886 276.96 332.18 275.666 333.474 275.666C334.768 275.666 336.063 276.529 336.063 278.254Z" fill="#E5E5E5"/>
<path d="M390.851 278.254C390.851 279.549 389.556 280.843 388.262 280.843C386.968 280.843 385.674 279.549 385.674 278.254C385.674 276.96 386.968 275.666 388.262 275.666C389.988 275.666 390.851 276.529 390.851 278.254Z" fill="#E5E5E5"/>
<path d="M446.07 278.254C446.07 279.549 444.776 280.843 443.482 280.843C442.188 280.843 440.894 279.549 440.894 278.254C440.894 276.96 442.188 275.666 443.482 275.666C444.776 275.666 446.07 276.529 446.07 278.254Z" fill="#E5E5E5"/>
<path d="M501.29 278.254C501.29 279.549 499.996 280.843 498.702 280.843C497.407 280.843 496.113 279.549 496.113 278.254C496.113 276.96 497.407 275.666 498.702 275.666C499.996 275.666 501.29 276.529 501.29 278.254Z" fill="#E5E5E5"/>
<path d="M556.509 278.254C556.509 279.549 555.215 280.843 553.921 280.843C552.627 280.843 551.333 279.549 551.333 278.254C551.333 276.96 552.627 275.666 553.921 275.666C555.215 275.666 556.509 276.529 556.509 278.254Z" fill="#E5E5E5"/>
<path d="M611.298 278.254C611.298 279.549 610.004 280.843 608.71 280.843C607.415 280.843 606.121 279.549 606.121 278.254C606.121 276.96 607.415 275.666 608.71 275.666C610.435 275.666 611.298 276.529 611.298 278.254Z" fill="#E5E5E5"/>
<path d="M5.17683 333.474C5.17683 334.768 3.88262 336.063 2.58842 336.063C1.29421 336.063 0 334.768 0 333.474C0 332.18 1.29421 330.886 2.58842 330.886C3.88262 330.886 5.17683 331.749 5.17683 333.474Z" fill="#E5E5E5"/>
<path d="M60.3966 333.474C60.3966 334.768 59.1023 336.063 57.8081 336.063C56.5139 336.063 55.2197 334.768 55.2197 333.474C55.2197 332.18 56.5139 330.886 57.8081 330.886C59.1023 330.454 60.3966 331.749 60.3966 333.474Z" fill="#E5E5E5"/>
<path d="M115.616 333.474C115.616 334.768 114.322 336.063 113.027 336.063C111.733 336.063 110.439 334.768 110.439 333.474C110.439 332.18 111.733 330.886 113.027 330.886C114.322 330.454 115.616 331.749 115.616 333.474Z" fill="#E5E5E5"/>
<path d="M170.836 333.474C170.836 334.768 169.541 336.063 168.247 336.063C166.953 336.063 165.659 334.768 165.659 333.474C165.659 332.18 166.953 330.886 168.247 330.886C169.541 330.454 170.836 331.749 170.836 333.474Z" fill="#E5E5E5"/>
<path d="M225.623 333.474C225.623 334.768 224.329 336.063 223.035 336.063C221.741 336.063 220.446 334.768 220.446 333.474C220.446 332.18 221.741 330.886 223.035 330.886C224.329 330.454 225.623 331.749 225.623 333.474Z" fill="#E5E5E5"/>
<path d="M280.843 333.474C280.843 334.768 279.549 336.063 278.254 336.063C276.96 336.063 275.666 334.768 275.666 333.474C275.666 332.18 276.96 330.886 278.254 330.886C279.549 330.886 280.843 331.749 280.843 333.474Z" fill="#E5E5E5"/>
<path d="M336.063 333.474C336.063 334.768 334.768 336.063 333.474 336.063C332.18 336.063 330.886 334.768 330.886 333.474C330.886 332.18 332.18 330.886 333.474 330.886C334.768 330.886 336.063 331.749 336.063 333.474Z" fill="#E5E5E5"/>
<path d="M390.851 333.474C390.851 334.768 389.556 336.063 388.262 336.063C386.968 336.063 385.674 334.768 385.674 333.474C385.674 332.18 386.968 330.886 388.262 330.886C389.988 330.454 390.851 331.749 390.851 333.474Z" fill="#E5E5E5"/>
<path d="M446.07 333.474C446.07 334.768 444.776 336.063 443.482 336.063C442.188 336.063 440.894 334.768 440.894 333.474C440.894 332.18 442.188 330.886 443.482 330.886C444.776 330.454 446.07 331.749 446.07 333.474Z" fill="#E5E5E5"/>
<path d="M501.29 333.474C501.29 334.768 499.996 336.063 498.702 336.063C497.407 336.063 496.113 334.768 496.113 333.474C496.113 332.18 497.407 330.886 498.702 330.886C499.996 330.454 501.29 331.749 501.29 333.474Z" fill="#E5E5E5"/>
<path d="M556.509 333.474C556.509 334.768 555.215 336.063 553.921 336.063C552.627 336.063 551.333 334.768 551.333 333.474C551.333 332.18 552.627 330.886 553.921 330.886C555.215 330.454 556.509 331.749 556.509 333.474Z" fill="#E5E5E5"/>
<path d="M611.298 333.474C611.298 334.768 610.004 336.063 608.71 336.063C607.415 336.063 606.121 334.768 606.121 333.474C606.121 332.18 607.415 330.886 608.71 330.886C610.435 330.454 611.298 331.749 611.298 333.474Z" fill="#E5E5E5"/>
<path d="M5.17683 388.262C5.17683 389.556 3.88262 390.85 2.58842 390.85C1.29421 390.85 0 389.988 0 388.262C0 386.968 1.29421 385.674 2.58842 385.674C3.88262 385.674 5.17683 386.968 5.17683 388.262Z" fill="#E5E5E5"/>
<path d="M60.3966 388.262C60.3966 389.556 59.1023 390.85 57.8081 390.85C56.5139 390.85 55.2197 389.556 55.2197 388.262C55.2197 386.968 56.5139 385.674 57.8081 385.674C59.1023 385.674 60.3966 386.968 60.3966 388.262Z" fill="#E5E5E5"/>
<path d="M115.616 388.262C115.616 389.556 114.322 390.85 113.027 390.85C111.733 390.85 110.439 389.556 110.439 388.262C110.439 386.968 111.733 385.674 113.027 385.674C114.322 385.674 115.616 386.968 115.616 388.262Z" fill="#E5E5E5"/>
<path d="M170.836 388.262C170.836 389.556 169.541 390.85 168.247 390.85C166.953 390.85 165.659 389.556 165.659 388.262C165.659 386.968 166.953 385.674 168.247 385.674C169.541 385.674 170.836 386.968 170.836 388.262Z" fill="#E5E5E5"/>
<path d="M225.623 388.262C225.623 389.556 224.329 390.85 223.035 390.85C221.741 390.85 220.446 389.556 220.446 388.262C220.446 386.968 221.741 385.674 223.035 385.674C224.329 385.674 225.623 386.968 225.623 388.262Z" fill="#E5E5E5"/>
<path d="M280.843 388.262C280.843 389.556 279.549 390.85 278.254 390.85C276.96 390.85 275.666 389.556 275.666 388.262C275.666 386.968 276.96 385.674 278.254 385.674C279.549 385.674 280.843 386.968 280.843 388.262Z" fill="#E5E5E5"/>
<path d="M336.063 388.262C336.063 389.556 334.768 390.85 333.474 390.85C332.18 390.85 330.886 389.556 330.886 388.262C330.886 386.968 332.18 385.674 333.474 385.674C334.768 385.674 336.063 386.968 336.063 388.262Z" fill="#E5E5E5"/>
<path d="M390.851 388.262C390.851 389.556 389.556 390.85 388.262 390.85C386.968 390.85 385.674 389.556 385.674 388.262C385.674 386.968 386.968 385.674 388.262 385.674C389.988 385.674 390.851 386.968 390.851 388.262Z" fill="#E5E5E5"/>
<path d="M446.07 388.262C446.07 389.556 444.776 390.85 443.482 390.85C442.188 390.85 440.894 389.556 440.894 388.262C440.894 386.968 442.188 385.674 443.482 385.674C444.776 385.674 446.07 386.968 446.07 388.262Z" fill="#E5E5E5"/>
<path d="M501.29 388.262C501.29 389.556 499.996 390.85 498.702 390.85C497.407 390.85 496.113 389.556 496.113 388.262C496.113 386.968 497.407 385.674 498.702 385.674C499.996 385.674 501.29 386.968 501.29 388.262Z" fill="#E5E5E5"/>
<path d="M556.509 388.262C556.509 389.556 555.215 390.85 553.921 390.85C552.627 390.85 551.333 389.556 551.333 388.262C551.333 386.968 552.627 385.674 553.921 385.674C555.215 385.674 556.509 386.968 556.509 388.262Z" fill="#E5E5E5"/>
<path d="M611.298 388.262C611.298 389.556 610.004 390.85 608.71 390.85C607.415 390.85 606.121 389.556 606.121 388.262C606.121 386.968 607.415 385.674 608.71 385.674C610.435 385.674 611.298 386.968 611.298 388.262Z" fill="#E5E5E5"/>
<path d="M5.17683 443.482C5.17683 444.776 3.88262 446.07 2.58842 446.07C1.29421 446.07 0 444.776 0 443.482C0 442.188 1.29421 440.893 2.58842 440.893C3.88262 440.893 5.17683 442.188 5.17683 443.482Z" fill="#E5E5E5"/>
<path d="M60.3966 443.482C60.3966 444.776 59.1023 446.07 57.8081 446.07C56.5139 446.07 55.2197 444.776 55.2197 443.482C55.2197 442.188 56.5139 440.893 57.8081 440.893C59.1023 440.893 60.3966 442.188 60.3966 443.482Z" fill="#E5E5E5"/>
<path d="M115.616 443.482C115.616 444.776 114.322 446.07 113.027 446.07C111.733 446.07 110.439 444.776 110.439 443.482C110.439 442.188 111.733 440.893 113.027 440.893C114.322 440.893 115.616 442.188 115.616 443.482Z" fill="#E5E5E5"/>
<path d="M170.836 443.482C170.836 444.776 169.541 446.07 168.247 446.07C166.953 446.07 165.659 444.776 165.659 443.482C165.659 442.188 166.953 440.893 168.247 440.893C169.541 440.893 170.836 442.188 170.836 443.482Z" fill="#E5E5E5"/>
<path d="M225.623 443.482C225.623 444.776 224.329 446.07 223.035 446.07C221.741 446.07 220.446 444.776 220.446 443.482C220.446 442.188 221.741 440.893 223.035 440.893C224.329 440.893 225.623 442.188 225.623 443.482Z" fill="#E5E5E5"/>
<path d="M280.843 443.482C280.843 444.776 279.549 446.07 278.254 446.07C276.96 446.07 275.666 444.776 275.666 443.482C275.666 442.188 276.96 440.893 278.254 440.893C279.549 440.893 280.843 442.188 280.843 443.482Z" fill="#E5E5E5"/>
<path d="M336.063 443.482C336.063 444.776 334.768 446.07 333.474 446.07C332.18 446.07 330.886 444.776 330.886 443.482C330.886 442.188 332.18 440.893 333.474 440.893C334.768 440.893 336.063 442.188 336.063 443.482Z" fill="#E5E5E5"/>
<path d="M390.851 443.482C390.851 444.776 389.556 446.07 388.262 446.07C386.968 446.07 385.674 444.776 385.674 443.482C385.674 442.188 386.968 440.893 388.262 440.893C389.988 440.893 390.851 442.188 390.851 443.482Z" fill="#E5E5E5"/>
<path d="M446.07 443.482C446.07 444.776 444.776 446.07 443.482 446.07C442.188 446.07 440.894 444.776 440.894 443.482C440.894 442.188 442.188 440.893 443.482 440.893C444.776 440.893 446.07 442.188 446.07 443.482Z" fill="#E5E5E5"/>
<path d="M501.29 443.482C501.29 444.776 499.996 446.07 498.702 446.07C497.407 446.07 496.113 444.776 496.113 443.482C496.113 442.188 497.407 440.893 498.702 440.893C499.996 440.893 501.29 442.188 501.29 443.482Z" fill="#E5E5E5"/>
<path d="M556.509 443.482C556.509 444.776 555.215 446.07 553.921 446.07C552.627 446.07 551.333 444.776 551.333 443.482C551.333 442.188 552.627 440.893 553.921 440.893C555.215 440.893 556.509 442.188 556.509 443.482Z" fill="#E5E5E5"/>
<path d="M611.298 443.482C611.298 444.776 610.004 446.07 608.71 446.07C607.415 446.07 606.121 444.776 606.121 443.482C606.121 442.188 607.415 440.893 608.71 440.893C610.435 440.893 611.298 442.188 611.298 443.482Z" fill="#E5E5E5"/>
<path d="M5.17683 498.701C5.17683 499.996 3.88262 501.29 2.58842 501.29C1.29421 501.29 0 499.996 0 498.701C0 497.407 1.29421 496.113 2.58842 496.113C3.88262 496.113 5.17683 496.976 5.17683 498.701Z" fill="#E5E5E5"/>
<path d="M60.3966 498.701C60.3966 499.996 59.1023 501.29 57.8081 501.29C56.5139 501.29 55.2197 499.996 55.2197 498.701C55.2197 497.407 56.5139 496.113 57.8081 496.113C59.1023 496.113 60.3966 496.976 60.3966 498.701Z" fill="#E5E5E5"/>
<path d="M115.616 498.701C115.616 499.996 114.322 501.29 113.027 501.29C111.733 501.29 110.439 499.996 110.439 498.701C110.439 497.407 111.733 496.113 113.027 496.113C114.322 496.113 115.616 496.976 115.616 498.701Z" fill="#E5E5E5"/>
<path d="M170.836 498.701C170.836 499.996 169.541 501.29 168.247 501.29C166.953 501.29 165.659 499.996 165.659 498.701C165.659 497.407 166.953 496.113 168.247 496.113C169.541 496.113 170.836 496.976 170.836 498.701Z" fill="#E5E5E5"/>
<path d="M225.623 498.701C225.623 499.996 224.329 501.29 223.035 501.29C221.741 501.29 220.446 499.996 220.446 498.701C220.446 497.407 221.741 496.113 223.035 496.113C224.329 496.113 225.623 496.976 225.623 498.701Z" fill="#E5E5E5"/>
<path d="M280.843 498.701C280.843 499.996 279.549 501.29 278.254 501.29C276.96 501.29 275.666 499.996 275.666 498.701C275.666 497.407 276.96 496.113 278.254 496.113C279.549 496.113 280.843 496.976 280.843 498.701Z" fill="#E5E5E5"/>
<path d="M336.063 498.701C336.063 499.996 334.768 501.29 333.474 501.29C332.18 501.29 330.886 499.996 330.886 498.701C330.886 497.407 332.18 496.113 333.474 496.113C334.768 496.113 336.063 496.976 336.063 498.701Z" fill="#E5E5E5"/>
<path d="M390.851 498.701C390.851 499.996 389.556 501.29 388.262 501.29C386.968 501.29 385.674 499.996 385.674 498.701C385.674 497.407 386.968 496.113 388.262 496.113C389.988 496.113 390.851 496.976 390.851 498.701Z" fill="#E5E5E5"/>
<path d="M446.07 498.701C446.07 499.996 444.776 501.29 443.482 501.29C442.188 501.29 440.894 499.996 440.894 498.701C440.894 497.407 442.188 496.113 443.482 496.113C444.776 496.113 446.07 496.976 446.07 498.701Z" fill="#E5E5E5"/>
<path d="M501.29 498.701C501.29 499.996 499.996 501.29 498.702 501.29C497.407 501.29 496.113 499.996 496.113 498.701C496.113 497.407 497.407 496.113 498.702 496.113C499.996 496.113 501.29 496.976 501.29 498.701Z" fill="#E5E5E5"/>
<path d="M556.509 498.701C556.509 499.996 555.215 501.29 553.921 501.29C552.627 501.29 551.333 499.996 551.333 498.701C551.333 497.407 552.627 496.113 553.921 496.113C555.215 496.113 556.509 496.976 556.509 498.701Z" fill="#E5E5E5"/>
<path d="M611.298 498.701C611.298 499.996 610.004 501.29 608.71 501.29C607.415 501.29 606.121 499.996 606.121 498.701C606.121 497.407 607.415 496.113 608.71 496.113C610.435 496.113 611.298 496.976 611.298 498.701Z" fill="#E5E5E5"/>
<path d="M5.17683 553.49C5.17683 554.784 3.88262 556.078 2.58842 556.078C1.29421 556.078 0 555.215 0 553.49C0 552.195 1.29421 550.901 2.58842 550.901C3.88262 550.901 5.17683 552.195 5.17683 553.49Z" fill="#E5E5E5"/>
<path d="M60.3966 553.49C60.3966 554.784 59.1023 556.078 57.8081 556.078C56.5139 556.078 55.2197 554.784 55.2197 553.49C55.2197 552.195 56.5139 550.901 57.8081 550.901C59.1023 550.901 60.3966 552.195 60.3966 553.49Z" fill="#E5E5E5"/>
<path d="M115.616 553.49C115.616 554.784 114.322 556.078 113.027 556.078C111.733 556.078 110.439 554.784 110.439 553.49C110.439 552.195 111.733 550.901 113.027 550.901C114.322 550.901 115.616 552.195 115.616 553.49Z" fill="#E5E5E5"/>
<path d="M170.836 553.49C170.836 554.784 169.541 556.078 168.247 556.078C166.953 556.078 165.659 554.784 165.659 553.49C165.659 552.195 166.953 550.901 168.247 550.901C169.541 550.901 170.836 552.195 170.836 553.49Z" fill="#E5E5E5"/>
<path d="M225.623 553.49C225.623 554.784 224.329 556.078 223.035 556.078C221.741 556.078 220.446 554.784 220.446 553.49C220.446 552.195 221.741 550.901 223.035 550.901C224.329 550.901 225.623 552.195 225.623 553.49Z" fill="#E5E5E5"/>
<path d="M280.843 553.49C280.843 554.784 279.549 556.078 278.254 556.078C276.96 556.078 275.666 554.784 275.666 553.49C275.666 552.195 276.96 550.901 278.254 550.901C279.549 550.901 280.843 552.195 280.843 553.49Z" fill="#E5E5E5"/>
<path d="M336.063 553.49C336.063 554.784 334.768 556.078 333.474 556.078C332.18 556.078 330.886 554.784 330.886 553.49C330.886 552.195 332.18 550.901 333.474 550.901C334.768 550.901 336.063 552.195 336.063 553.49Z" fill="#E5E5E5"/>
<path d="M390.851 553.49C390.851 554.784 389.556 556.078 388.262 556.078C386.968 556.078 385.674 554.784 385.674 553.49C385.674 552.195 386.968 550.901 388.262 550.901C389.988 550.901 390.851 552.195 390.851 553.49Z" fill="#E5E5E5"/>
<path d="M446.07 553.49C446.07 554.784 444.776 556.078 443.482 556.078C442.188 556.078 440.894 554.784 440.894 553.49C440.894 552.195 442.188 550.901 443.482 550.901C444.776 550.901 446.07 552.195 446.07 553.49Z" fill="#E5E5E5"/>
<path d="M501.29 553.49C501.29 554.784 499.996 556.078 498.702 556.078C497.407 556.078 496.113 554.784 496.113 553.49C496.113 552.195 497.407 550.901 498.702 550.901C499.996 550.901 501.29 552.195 501.29 553.49Z" fill="#E5E5E5"/>
<path d="M556.509 553.49C556.509 554.784 555.215 556.078 553.921 556.078C552.627 556.078 551.333 554.784 551.333 553.49C551.333 552.195 552.627 550.901 553.921 550.901C555.215 550.901 556.509 552.195 556.509 553.49Z" fill="#E5E5E5"/>
<path d="M611.298 553.49C611.298 554.784 610.004 556.078 608.71 556.078C607.415 556.078 606.121 554.784 606.121 553.49C606.121 552.195 607.415 550.901 608.71 550.901C610.435 550.901 611.298 552.195 611.298 553.49Z" fill="#E5E5E5"/>
<path d="M5.17683 608.709C5.17683 610.003 3.88262 611.297 2.58842 611.297C1.29421 611.297 0 610.435 0 608.709C0 607.415 1.29421 606.121 2.58842 606.121C3.88262 606.121 5.17683 607.415 5.17683 608.709Z" fill="#E5E5E5"/>
<path d="M60.3966 608.709C60.3966 610.003 59.1023 611.297 57.8081 611.297C56.5139 611.297 55.2197 610.003 55.2197 608.709C55.2197 607.415 56.5139 606.121 57.8081 606.121C59.1023 606.121 60.3966 607.415 60.3966 608.709Z" fill="#E5E5E5"/>
<path d="M115.616 608.709C115.616 610.003 114.322 611.297 113.027 611.297C111.733 611.297 110.439 610.003 110.439 608.709C110.439 607.415 111.733 606.121 113.027 606.121C114.322 606.121 115.616 607.415 115.616 608.709Z" fill="#E5E5E5"/>
<path d="M170.836 608.709C170.836 610.003 169.541 611.297 168.247 611.297C166.953 611.297 165.659 610.003 165.659 608.709C165.659 607.415 166.953 606.121 168.247 606.121C169.541 606.121 170.836 607.415 170.836 608.709Z" fill="#E5E5E5"/>
<path d="M225.623 608.709C225.623 610.003 224.329 611.297 223.035 611.297C221.741 611.297 220.446 610.003 220.446 608.709C220.446 607.415 221.741 606.121 223.035 606.121C224.329 606.121 225.623 607.415 225.623 608.709Z" fill="#E5E5E5"/>
<path d="M280.843 608.709C280.843 610.003 279.549 611.297 278.254 611.297C276.96 611.297 275.666 610.003 275.666 608.709C275.666 607.415 276.96 606.121 278.254 606.121C279.549 606.121 280.843 607.415 280.843 608.709Z" fill="#E5E5E5"/>
<path d="M336.063 608.709C336.063 610.003 334.768 611.297 333.474 611.297C332.18 611.297 330.886 610.003 330.886 608.709C330.886 607.415 332.18 606.121 333.474 606.121C334.768 606.121 336.063 607.415 336.063 608.709Z" fill="#E5E5E5"/>
<path d="M390.851 608.709C390.851 610.003 389.556 611.297 388.262 611.297C386.968 611.297 385.674 610.003 385.674 608.709C385.674 607.415 386.968 606.121 388.262 606.121C389.988 606.121 390.851 607.415 390.851 608.709Z" fill="#E5E5E5"/>
<path d="M446.07 608.709C446.07 610.003 444.776 611.297 443.482 611.297C442.188 611.297 440.894 610.003 440.894 608.709C440.894 607.415 442.188 606.121 443.482 606.121C444.776 606.121 446.07 607.415 446.07 608.709Z" fill="#E5E5E5"/>
<path d="M501.29 608.709C501.29 610.003 499.996 611.297 498.702 611.297C497.407 611.297 496.113 610.003 496.113 608.709C496.113 607.415 497.407 606.121 498.702 606.121C499.996 606.121 501.29 607.415 501.29 608.709Z" fill="#E5E5E5"/>
<path d="M556.509 608.709C556.509 610.003 555.215 611.297 553.921 611.297C552.627 611.297 551.333 610.003 551.333 608.709C551.333 607.415 552.627 606.121 553.921 606.121C555.215 606.121 556.509 607.415 556.509 608.709Z" fill="#E5E5E5"/>
<path d="M611.298 608.709C611.298 610.003 610.004 611.297 608.71 611.297C607.415 611.297 606.121 610.003 606.121 608.709C606.121 607.415 607.415 606.121 608.71 606.121C610.435 606.121 611.298 607.415 611.298 608.709Z" fill="#E5E5E5"/>
<path d="M654.036 2.58842C654.036 4.31403 653.267 5.17683 651.73 5.17683C650.193 5.17683 649.424 4.31403 649.424 2.58842C649.424 1.29421 650.577 0 651.73 0C652.883 0 654.036 1.29421 654.036 2.58842Z" fill="#E5E5E5"/>
<path d="M703.229 2.58842C703.229 3.88262 702.076 5.17683 700.923 5.17683C699.77 5.17683 698.617 3.88262 698.617 2.58842C698.617 1.29421 699.386 0 700.923 0C702.076 0 703.229 1.29421 703.229 2.58842Z" fill="#E5E5E5"/>
<path d="M752.421 2.58842C752.421 3.88262 751.268 5.17683 750.115 5.17683C748.962 5.17683 747.809 3.88262 747.809 2.58842C747.809 1.29421 748.962 0 750.115 0C751.268 0 752.421 1.29421 752.421 2.58842Z" fill="#E5E5E5"/>
<path d="M801.614 2.58842C801.614 3.88262 800.461 5.17683 799.308 5.17683C798.155 5.17683 797.002 3.88262 797.002 2.58842C797.002 1.29421 798.155 0 799.308 0C800.461 0 801.614 1.29421 801.614 2.58842Z" fill="#E5E5E5"/>
<path d="M850.422 2.58842C850.422 3.88262 849.269 5.17683 848.116 5.17683C846.963 5.17683 845.81 3.88262 845.81 2.58842C845.81 1.29421 846.963 0 848.116 0C849.269 0 850.422 1.29421 850.422 2.58842Z" fill="#E5E5E5"/>
<path d="M899.615 2.58842C899.615 3.88262 898.462 5.17683 897.309 5.17683C896.156 5.17683 895.003 4.31403 895.003 2.58842C895.003 1.29421 896.156 0 897.309 0C898.462 0 899.615 1.29421 899.615 2.58842Z" fill="#E5E5E5"/>
<path d="M948.807 2.58842C948.807 3.88262 947.654 5.17683 946.501 5.17683C945.348 5.17683 943.811 4.31403 943.811 2.58842C943.811 1.29421 944.963 0 946.116 0C947.269 0 948.807 1.29421 948.807 2.58842Z" fill="#E5E5E5"/>
<path d="M997.615 2.58842C997.615 3.88262 996.462 5.17683 995.309 5.17683C994.156 5.17683 993.003 3.88262 993.003 2.58842C993.003 1.29421 994.156 0 995.309 0C996.847 0 997.615 1.29421 997.615 2.58842Z" fill="#E5E5E5"/>
<path d="M1046.81 2.58842C1046.81 3.88262 1045.65 5.17683 1044.5 5.17683C1043.35 5.17683 1042.2 3.88262 1042.2 2.58842C1042.2 1.29421 1043.35 0 1044.5 0C1045.65 0 1046.81 1.29421 1046.81 2.58842Z" fill="#E5E5E5"/>
<path d="M1096 2.58842C1096 3.88262 1094.85 5.17683 1093.69 5.17683C1092.54 5.17683 1091.39 3.88262 1091.39 2.58842C1091.39 1.29421 1092.54 0 1093.69 0C1094.85 0 1096 1.29421 1096 2.58842Z" fill="#E5E5E5"/>
<path d="M1145.19 2.58842C1145.19 3.88262 1144.04 5.17683 1142.89 5.17683C1141.73 5.17683 1140.58 3.88262 1140.58 2.58842C1140.58 1.29421 1141.73 0 1142.89 0C1144.04 0 1145.19 1.29421 1145.19 2.58842Z" fill="#E5E5E5"/>
<path d="M1194 2.58842C1194 3.88262 1192.85 5.17683 1191.69 5.17683C1190.54 5.17683 1189.39 3.88262 1189.39 2.58842C1189.39 1.29421 1190.54 0 1191.69 0C1193.23 0 1194 1.29421 1194 2.58842Z" fill="#E5E5E5"/>
<path d="M654.037 57.8081C654.037 59.1023 653.268 60.3966 651.731 60.3966C650.193 60.3966 649.425 59.1023 649.425 57.8081C649.425 56.5139 650.578 55.2197 651.731 55.2197C652.884 55.2197 654.037 56.0825 654.037 57.8081Z" fill="#E5E5E5"/>
<path d="M703.229 57.8081C703.229 59.1023 702.076 60.3966 700.923 60.3966C699.77 60.3966 698.617 59.1023 698.617 57.8081C698.617 56.5139 699.77 55.2197 700.923 55.2197C702.076 55.2197 703.229 56.0825 703.229 57.8081Z" fill="#E5E5E5"/>
<path d="M752.421 57.8081C752.421 59.1023 751.268 60.3966 750.115 60.3966C748.962 60.3966 747.809 59.1023 747.809 57.8081C747.809 56.5139 748.962 55.2197 750.115 55.2197C751.268 55.2197 752.421 56.0825 752.421 57.8081Z" fill="#E5E5E5"/>
<path d="M801.614 57.8081C801.614 59.1023 800.461 60.3966 799.308 60.3966C798.155 60.3966 797.002 59.1023 797.002 57.8081C797.002 56.5139 798.155 55.2197 799.308 55.2197C800.461 55.2197 801.614 56.0825 801.614 57.8081Z" fill="#E5E5E5"/>
<path d="M850.422 57.8081C850.422 59.1023 849.269 60.3966 848.116 60.3966C846.963 60.3966 845.81 59.1023 845.81 57.8081C845.81 56.5139 846.963 55.2197 848.116 55.2197C849.269 55.2197 850.422 56.0825 850.422 57.8081Z" fill="#E5E5E5"/>
<path d="M899.615 57.8081C899.615 59.1023 898.462 60.3966 897.309 60.3966C896.156 60.3966 895.003 59.1023 895.003 57.8081C895.003 56.5139 896.156 55.2197 897.309 55.2197C898.462 55.2197 899.615 56.0825 899.615 57.8081Z" fill="#E5E5E5"/>
<path d="M948.807 57.8081C948.807 59.1023 947.654 60.3966 946.501 60.3966C945.348 60.3966 944.195 59.1023 944.195 57.8081C944.195 56.5139 945.348 55.2197 946.501 55.2197C947.654 55.2197 948.807 56.0825 948.807 57.8081Z" fill="#E5E5E5"/>
<path d="M997.615 57.8081C997.615 59.1023 996.462 60.3966 995.309 60.3966C994.156 60.3966 993.003 59.1023 993.003 57.8081C993.003 56.5139 994.156 55.2197 995.309 55.2197C996.847 55.2197 997.615 56.0825 997.615 57.8081Z" fill="#E5E5E5"/>
<path d="M1046.81 57.8081C1046.81 59.1023 1045.65 60.3966 1044.5 60.3966C1043.35 60.3966 1042.2 59.1023 1042.2 57.8081C1042.2 56.5139 1043.35 55.2197 1044.5 55.2197C1045.65 55.2197 1046.81 56.0825 1046.81 57.8081Z" fill="#E5E5E5"/>
<path d="M1096 57.8081C1096 59.1023 1094.85 60.3966 1093.69 60.3966C1092.54 60.3966 1091.39 59.1023 1091.39 57.8081C1091.39 56.5139 1092.54 55.2197 1093.69 55.2197C1094.85 55.2197 1096 56.0825 1096 57.8081Z" fill="#E5E5E5"/>
<path d="M1145.19 57.8081C1145.19 59.1023 1144.04 60.3966 1142.89 60.3966C1141.73 60.3966 1140.58 59.1023 1140.58 57.8081C1140.58 56.5139 1141.73 55.2197 1142.89 55.2197C1144.04 55.2197 1145.19 56.0825 1145.19 57.8081Z" fill="#E5E5E5"/>
<path d="M1194 57.8081C1194 59.1023 1192.85 60.3966 1191.69 60.3966C1190.54 60.3966 1189.39 59.1023 1189.39 57.8081C1189.39 56.5139 1190.54 55.2197 1191.69 55.2197C1193.23 55.2197 1194 56.0825 1194 57.8081Z" fill="#E5E5E5"/>
<path d="M654.037 113.028C654.037 114.322 652.884 115.616 651.731 115.616C650.578 115.616 649.425 114.322 649.425 113.028C649.425 111.734 650.578 110.439 651.731 110.439C652.884 110.439 654.037 111.302 654.037 113.028Z" fill="#E5E5E5"/>
<path d="M703.229 113.027C703.229 114.321 702.076 115.616 700.923 115.616C699.77 115.616 698.617 114.321 698.617 113.027C698.617 111.733 699.77 110.439 700.923 110.439C702.076 110.007 703.229 111.302 703.229 113.027Z" fill="#E5E5E5"/>
<path d="M752.421 113.027C752.421 114.321 751.268 115.616 750.115 115.616C748.962 115.616 747.809 114.321 747.809 113.027C747.809 111.733 748.962 110.439 750.115 110.439C751.268 110.007 752.421 111.302 752.421 113.027Z" fill="#E5E5E5"/>
<path d="M801.614 113.027C801.614 114.321 800.461 115.616 799.308 115.616C798.155 115.616 797.002 114.321 797.002 113.027C797.002 111.733 798.155 110.439 799.308 110.439C800.461 110.007 801.614 111.302 801.614 113.027Z" fill="#E5E5E5"/>
<path d="M850.422 113.027C850.422 114.321 849.269 115.616 848.116 115.616C846.963 115.616 845.81 114.321 845.81 113.027C845.81 111.733 846.963 110.439 848.116 110.439C849.269 110.007 850.422 111.302 850.422 113.027Z" fill="#E5E5E5"/>
<path d="M899.615 113.028C899.615 114.322 898.462 115.616 897.309 115.616C896.156 115.616 895.003 114.322 895.003 113.028C895.003 111.734 896.156 110.439 897.309 110.439C898.462 110.439 899.615 111.302 899.615 113.028Z" fill="#E5E5E5"/>
<path d="M948.807 113.028C948.807 114.322 947.654 115.616 946.501 115.616C945.348 115.616 944.195 114.322 944.195 113.028C944.195 111.734 945.348 110.439 946.501 110.439C947.654 110.439 948.807 111.302 948.807 113.028Z" fill="#E5E5E5"/>
<path d="M997.615 113.027C997.615 114.321 996.462 115.616 995.309 115.616C994.156 115.616 993.003 114.321 993.003 113.027C993.003 111.733 994.156 110.439 995.309 110.439C996.847 110.007 997.615 111.302 997.615 113.027Z" fill="#E5E5E5"/>
<path d="M1046.81 113.027C1046.81 114.321 1045.65 115.616 1044.5 115.616C1043.35 115.616 1042.2 114.321 1042.2 113.027C1042.2 111.733 1043.35 110.439 1044.5 110.439C1045.65 110.007 1046.81 111.302 1046.81 113.027Z" fill="#E5E5E5"/>
<path d="M1096 113.027C1096 114.321 1094.85 115.616 1093.69 115.616C1092.54 115.616 1091.39 114.321 1091.39 113.027C1091.39 111.733 1092.54 110.439 1093.69 110.439C1094.85 110.007 1096 111.302 1096 113.027Z" fill="#E5E5E5"/>
<path d="M1145.19 113.027C1145.19 114.321 1144.04 115.616 1142.89 115.616C1141.73 115.616 1140.58 114.321 1140.58 113.027C1140.58 111.733 1141.73 110.439 1142.89 110.439C1144.04 110.007 1145.19 111.302 1145.19 113.027Z" fill="#E5E5E5"/>
<path d="M1194 113.027C1194 114.321 1192.85 115.616 1191.69 115.616C1190.54 115.616 1189.39 114.321 1189.39 113.027C1189.39 111.733 1190.54 110.439 1191.69 110.439C1193.23 110.007 1194 111.302 1194 113.027Z" fill="#E5E5E5"/>
<path d="M654.037 167.816C654.037 169.11 652.884 170.404 651.731 170.404C650.578 170.404 649.425 169.541 649.425 167.816C649.425 166.522 650.578 165.227 651.731 165.227C652.884 165.227 654.037 166.522 654.037 167.816Z" fill="#E5E5E5"/>
<path d="M703.229 167.816C703.229 169.11 702.076 170.404 700.923 170.404C699.77 170.404 698.617 169.11 698.617 167.816C698.617 166.522 699.77 165.227 700.923 165.227C702.076 165.227 703.229 166.522 703.229 167.816Z" fill="#E5E5E5"/>
<path d="M752.421 167.816C752.421 169.11 751.268 170.404 750.115 170.404C748.962 170.404 747.809 169.11 747.809 167.816C747.809 166.522 748.962 165.227 750.115 165.227C751.268 165.227 752.421 166.522 752.421 167.816Z" fill="#E5E5E5"/>
<path d="M801.614 167.816C801.614 169.11 800.461 170.404 799.308 170.404C798.155 170.404 797.002 169.11 797.002 167.816C797.002 166.522 798.155 165.227 799.308 165.227C800.461 165.227 801.614 166.522 801.614 167.816Z" fill="#E5E5E5"/>
<path d="M850.422 167.816C850.422 169.11 849.269 170.404 848.116 170.404C846.963 170.404 845.81 169.11 845.81 167.816C845.81 166.522 846.963 165.227 848.116 165.227C849.269 165.227 850.422 166.522 850.422 167.816Z" fill="#E5E5E5"/>
<path d="M899.615 167.816C899.615 169.11 898.462 170.404 897.309 170.404C896.156 170.404 895.003 169.11 895.003 167.816C895.003 166.522 896.156 165.227 897.309 165.227C898.462 165.227 899.615 166.522 899.615 167.816Z" fill="#E5E5E5"/>
<path d="M948.807 167.816C948.807 169.11 947.654 170.404 946.501 170.404C945.348 170.404 944.195 169.11 944.195 167.816C944.195 166.522 945.348 165.227 946.501 165.227C947.654 165.227 948.807 166.522 948.807 167.816Z" fill="#E5E5E5"/>
<path d="M997.615 167.816C997.615 169.11 996.462 170.404 995.309 170.404C994.156 170.404 993.003 169.11 993.003 167.816C993.003 166.522 994.156 165.227 995.309 165.227C996.847 165.227 997.615 166.522 997.615 167.816Z" fill="#E5E5E5"/>
<path d="M1046.81 167.816C1046.81 169.11 1045.65 170.404 1044.5 170.404C1043.35 170.404 1042.2 169.11 1042.2 167.816C1042.2 166.522 1043.35 165.227 1044.5 165.227C1045.65 165.227 1046.81 166.522 1046.81 167.816Z" fill="#E5E5E5"/>
<path d="M1096 167.816C1096 169.11 1094.85 170.404 1093.69 170.404C1092.54 170.404 1091.39 169.11 1091.39 167.816C1091.39 166.522 1092.54 165.227 1093.69 165.227C1094.85 165.227 1096 166.522 1096 167.816Z" fill="#E5E5E5"/>
<path d="M1145.19 167.816C1145.19 169.11 1144.04 170.404 1142.89 170.404C1141.73 170.404 1140.58 169.11 1140.58 167.816C1140.58 166.522 1141.73 165.227 1142.89 165.227C1144.04 165.227 1145.19 166.522 1145.19 167.816Z" fill="#E5E5E5"/>
<path d="M1194 167.816C1194 169.11 1192.85 170.404 1191.69 170.404C1190.54 170.404 1189.39 169.11 1189.39 167.816C1189.39 166.522 1190.54 165.227 1191.69 165.227C1193.23 165.227 1194 166.522 1194 167.816Z" fill="#E5E5E5"/>
<path d="M654.037 223.035C654.037 224.33 652.884 225.624 651.731 225.624C650.578 225.624 649.425 224.33 649.425 223.035C649.425 221.741 650.578 220.447 651.731 220.447C652.884 220.447 654.037 221.741 654.037 223.035Z" fill="#E5E5E5"/>
<path d="M703.229 223.035C703.229 224.33 702.076 225.624 700.923 225.624C699.77 225.624 698.617 224.33 698.617 223.035C698.617 221.741 699.77 220.447 700.923 220.447C702.076 220.447 703.229 221.741 703.229 223.035Z" fill="#E5E5E5"/>
<path d="M752.421 223.035C752.421 224.33 751.268 225.624 750.115 225.624C748.962 225.624 747.809 224.33 747.809 223.035C747.809 221.741 748.962 220.447 750.115 220.447C751.268 220.447 752.421 221.741 752.421 223.035Z" fill="#E5E5E5"/>
<path d="M801.614 223.035C801.614 224.33 800.461 225.624 799.308 225.624C798.155 225.624 797.002 224.33 797.002 223.035C797.002 221.741 798.155 220.447 799.308 220.447C800.461 220.447 801.614 221.741 801.614 223.035Z" fill="#E5E5E5"/>
<path d="M850.422 223.035C850.422 224.33 849.269 225.624 848.116 225.624C846.963 225.624 845.81 224.33 845.81 223.035C845.81 221.741 846.963 220.447 848.116 220.447C849.269 220.447 850.422 221.741 850.422 223.035Z" fill="#E5E5E5"/>
<path d="M899.615 223.035C899.615 224.33 898.462 225.624 897.309 225.624C896.156 225.624 895.003 224.33 895.003 223.035C895.003 221.741 896.156 220.447 897.309 220.447C898.462 220.447 899.615 221.741 899.615 223.035Z" fill="#E5E5E5"/>
<path d="M948.807 223.035C948.807 224.33 947.654 225.624 946.501 225.624C945.348 225.624 944.195 224.33 944.195 223.035C944.195 221.741 945.348 220.447 946.501 220.447C947.654 220.447 948.807 221.741 948.807 223.035Z" fill="#E5E5E5"/>
<path d="M997.615 223.035C997.615 224.33 996.462 225.624 995.309 225.624C994.156 225.624 993.003 224.33 993.003 223.035C993.003 221.741 994.156 220.447 995.309 220.447C996.847 220.447 997.615 221.741 997.615 223.035Z" fill="#E5E5E5"/>
<path d="M1046.81 223.035C1046.81 224.33 1045.65 225.624 1044.5 225.624C1043.35 225.624 1042.2 224.33 1042.2 223.035C1042.2 221.741 1043.35 220.447 1044.5 220.447C1045.65 220.447 1046.81 221.741 1046.81 223.035Z" fill="#E5E5E5"/>
<path d="M1096 223.035C1096 224.33 1094.85 225.624 1093.69 225.624C1092.54 225.624 1091.39 224.33 1091.39 223.035C1091.39 221.741 1092.54 220.447 1093.69 220.447C1094.85 220.447 1096 221.741 1096 223.035Z" fill="#E5E5E5"/>
<path d="M1145.19 223.035C1145.19 224.33 1144.04 225.624 1142.89 225.624C1141.73 225.624 1140.58 224.33 1140.58 223.035C1140.58 221.741 1141.73 220.447 1142.89 220.447C1144.04 220.447 1145.19 221.741 1145.19 223.035Z" fill="#E5E5E5"/>
<path d="M1194 223.035C1194 224.33 1192.85 225.624 1191.69 225.624C1190.54 225.624 1189.39 224.33 1189.39 223.035C1189.39 221.741 1190.54 220.447 1191.69 220.447C1193.23 220.447 1194 221.741 1194 223.035Z" fill="#E5E5E5"/>
<path d="M654.037 278.254C654.037 279.549 652.884 280.843 651.731 280.843C650.578 280.843 649.425 279.549 649.425 278.254C649.425 276.96 650.578 275.666 651.731 275.666C652.884 275.666 654.037 276.529 654.037 278.254Z" fill="#E5E5E5"/>
<path d="M703.229 278.254C703.229 279.549 702.076 280.843 700.923 280.843C699.77 280.843 698.617 279.549 698.617 278.254C698.617 276.96 699.77 275.666 700.923 275.666C702.076 275.666 703.229 276.529 703.229 278.254Z" fill="#E5E5E5"/>
<path d="M752.421 278.254C752.421 279.549 751.268 280.843 750.115 280.843C748.962 280.843 747.809 279.549 747.809 278.254C747.809 276.96 748.962 275.666 750.115 275.666C751.268 275.666 752.421 276.529 752.421 278.254Z" fill="#E5E5E5"/>
<path d="M801.614 278.254C801.614 279.549 800.461 280.843 799.308 280.843C798.155 280.843 797.002 279.549 797.002 278.254C797.002 276.96 798.155 275.666 799.308 275.666C800.461 275.666 801.614 276.529 801.614 278.254Z" fill="#E5E5E5"/>
<path d="M850.422 278.254C850.422 279.549 849.269 280.843 848.116 280.843C846.963 280.843 845.81 279.549 845.81 278.254C845.81 276.96 846.963 275.666 848.116 275.666C849.269 275.666 850.422 276.529 850.422 278.254Z" fill="#E5E5E5"/>
<path d="M899.615 278.254C899.615 279.549 898.462 280.843 897.309 280.843C896.156 280.843 895.003 279.549 895.003 278.254C895.003 276.96 896.156 275.666 897.309 275.666C898.462 275.666 899.615 276.529 899.615 278.254Z" fill="#E5E5E5"/>
<path d="M948.807 278.254C948.807 279.549 947.654 280.843 946.501 280.843C945.348 280.843 944.195 279.549 944.195 278.254C944.195 276.96 945.348 275.666 946.501 275.666C947.654 275.666 948.807 276.529 948.807 278.254Z" fill="#E5E5E5"/>
<path d="M997.615 278.254C997.615 279.549 996.462 280.843 995.309 280.843C994.156 280.843 993.003 279.549 993.003 278.254C993.003 276.96 994.156 275.666 995.309 275.666C996.847 275.666 997.615 276.529 997.615 278.254Z" fill="#E5E5E5"/>
<path d="M1046.81 278.254C1046.81 279.549 1045.65 280.843 1044.5 280.843C1043.35 280.843 1042.2 279.549 1042.2 278.254C1042.2 276.96 1043.35 275.666 1044.5 275.666C1045.65 275.666 1046.81 276.529 1046.81 278.254Z" fill="#E5E5E5"/>
<path d="M1096 278.254C1096 279.549 1094.85 280.843 1093.69 280.843C1092.54 280.843 1091.39 279.549 1091.39 278.254C1091.39 276.96 1092.54 275.666 1093.69 275.666C1094.85 275.666 1096 276.529 1096 278.254Z" fill="#E5E5E5"/>
<path d="M1145.19 278.254C1145.19 279.549 1144.04 280.843 1142.89 280.843C1141.73 280.843 1140.58 279.549 1140.58 278.254C1140.58 276.96 1141.73 275.666 1142.89 275.666C1144.04 275.666 1145.19 276.529 1145.19 278.254Z" fill="#E5E5E5"/>
<path d="M1194 278.254C1194 279.549 1192.85 280.843 1191.69 280.843C1190.54 280.843 1189.39 279.549 1189.39 278.254C1189.39 276.96 1190.54 275.666 1191.69 275.666C1193.23 275.666 1194 276.529 1194 278.254Z" fill="#E5E5E5"/>
<path d="M654.037 333.474C654.037 334.768 652.884 336.063 651.731 336.063C650.578 336.063 649.425 334.768 649.425 333.474C649.425 332.18 650.578 330.886 651.731 330.886C652.884 330.886 654.037 331.749 654.037 333.474Z" fill="#E5E5E5"/>
<path d="M703.229 333.474C703.229 334.768 702.076 336.063 700.923 336.063C699.77 336.063 698.617 334.768 698.617 333.474C698.617 332.18 699.77 330.886 700.923 330.886C702.076 330.454 703.229 331.749 703.229 333.474Z" fill="#E5E5E5"/>
<path d="M752.421 333.474C752.421 334.768 751.268 336.063 750.115 336.063C748.962 336.063 747.809 334.768 747.809 333.474C747.809 332.18 748.962 330.886 750.115 330.886C751.268 330.454 752.421 331.749 752.421 333.474Z" fill="#E5E5E5"/>
<path d="M801.614 333.474C801.614 334.768 800.461 336.063 799.308 336.063C798.155 336.063 797.002 334.768 797.002 333.474C797.002 332.18 798.155 330.886 799.308 330.886C800.461 330.454 801.614 331.749 801.614 333.474Z" fill="#E5E5E5"/>
<path d="M850.422 333.474C850.422 334.768 849.269 336.063 848.116 336.063C846.963 336.063 845.81 334.768 845.81 333.474C845.81 332.18 846.963 330.886 848.116 330.886C849.269 330.454 850.422 331.749 850.422 333.474Z" fill="#E5E5E5"/>
<path d="M899.615 333.474C899.615 334.768 898.462 336.063 897.309 336.063C896.156 336.063 895.003 334.768 895.003 333.474C895.003 332.18 896.156 330.886 897.309 330.886C898.462 330.886 899.615 331.749 899.615 333.474Z" fill="#E5E5E5"/>
<path d="M948.807 333.474C948.807 334.768 947.654 336.063 946.501 336.063C945.348 336.063 944.195 334.768 944.195 333.474C944.195 332.18 945.348 330.886 946.501 330.886C947.654 330.886 948.807 331.749 948.807 333.474Z" fill="#E5E5E5"/>
<path d="M997.615 333.474C997.615 334.768 996.462 336.063 995.309 336.063C994.156 336.063 993.003 334.768 993.003 333.474C993.003 332.18 994.156 330.886 995.309 330.886C996.847 330.454 997.615 331.749 997.615 333.474Z" fill="#E5E5E5"/>
<path d="M1046.81 333.474C1046.81 334.768 1045.65 336.063 1044.5 336.063C1043.35 336.063 1042.2 334.768 1042.2 333.474C1042.2 332.18 1043.35 330.886 1044.5 330.886C1045.65 330.454 1046.81 331.749 1046.81 333.474Z" fill="#E5E5E5"/>
<path d="M1096 333.474C1096 334.768 1094.85 336.063 1093.69 336.063C1092.54 336.063 1091.39 334.768 1091.39 333.474C1091.39 332.18 1092.54 330.886 1093.69 330.886C1094.85 330.454 1096 331.749 1096 333.474Z" fill="#E5E5E5"/>
<path d="M1145.19 333.474C1145.19 334.768 1144.04 336.063 1142.89 336.063C1141.73 336.063 1140.58 334.768 1140.58 333.474C1140.58 332.18 1141.73 330.886 1142.89 330.886C1144.04 330.454 1145.19 331.749 1145.19 333.474Z" fill="#E5E5E5"/>
<path d="M1194 333.474C1194 334.768 1192.85 336.063 1191.69 336.063C1190.54 336.063 1189.39 334.768 1189.39 333.474C1189.39 332.18 1190.54 330.886 1191.69 330.886C1193.23 330.454 1194 331.749 1194 333.474Z" fill="#E5E5E5"/>
<path d="M654.037 388.262C654.037 389.556 652.884 390.85 651.731 390.85C650.578 390.85 649.425 389.988 649.425 388.262C649.425 386.968 650.578 385.674 651.731 385.674C652.884 385.674 654.037 386.968 654.037 388.262Z" fill="#E5E5E5"/>
<path d="M703.229 388.262C703.229 389.556 702.076 390.85 700.923 390.85C699.77 390.85 698.617 389.556 698.617 388.262C698.617 386.968 699.77 385.674 700.923 385.674C702.076 385.674 703.229 386.968 703.229 388.262Z" fill="#E5E5E5"/>
<path d="M752.421 388.262C752.421 389.556 751.268 390.85 750.115 390.85C748.962 390.85 747.809 389.556 747.809 388.262C747.809 386.968 748.962 385.674 750.115 385.674C751.268 385.674 752.421 386.968 752.421 388.262Z" fill="#E5E5E5"/>
<path d="M801.614 388.262C801.614 389.556 800.461 390.85 799.308 390.85C798.155 390.85 797.002 389.556 797.002 388.262C797.002 386.968 798.155 385.674 799.308 385.674C800.461 385.674 801.614 386.968 801.614 388.262Z" fill="#E5E5E5"/>
<path d="M850.422 388.262C850.422 389.556 849.269 390.85 848.116 390.85C846.963 390.85 845.81 389.556 845.81 388.262C845.81 386.968 846.963 385.674 848.116 385.674C849.269 385.674 850.422 386.968 850.422 388.262Z" fill="#E5E5E5"/>
<path d="M899.615 388.262C899.615 389.556 898.462 390.85 897.309 390.85C896.156 390.85 895.003 389.556 895.003 388.262C895.003 386.968 896.156 385.674 897.309 385.674C898.462 385.674 899.615 386.968 899.615 388.262Z" fill="#E5E5E5"/>
<path d="M948.807 388.262C948.807 389.556 947.654 390.85 946.501 390.85C945.348 390.85 944.195 389.556 944.195 388.262C944.195 386.968 945.348 385.674 946.501 385.674C947.654 385.674 948.807 386.968 948.807 388.262Z" fill="#E5E5E5"/>
<path d="M997.615 388.262C997.615 389.556 996.462 390.85 995.309 390.85C994.156 390.85 993.003 389.556 993.003 388.262C993.003 386.968 994.156 385.674 995.309 385.674C996.847 385.674 997.615 386.968 997.615 388.262Z" fill="#E5E5E5"/>
<path d="M1046.81 388.262C1046.81 389.556 1045.65 390.85 1044.5 390.85C1043.35 390.85 1042.2 389.556 1042.2 388.262C1042.2 386.968 1043.35 385.674 1044.5 385.674C1045.65 385.674 1046.81 386.968 1046.81 388.262Z" fill="#E5E5E5"/>
<path d="M1096 388.262C1096 389.556 1094.85 390.85 1093.69 390.85C1092.54 390.85 1091.39 389.556 1091.39 388.262C1091.39 386.968 1092.54 385.674 1093.69 385.674C1094.85 385.674 1096 386.968 1096 388.262Z" fill="#E5E5E5"/>
<path d="M1145.19 388.262C1145.19 389.556 1144.04 390.85 1142.89 390.85C1141.73 390.85 1140.58 389.556 1140.58 388.262C1140.58 386.968 1141.73 385.674 1142.89 385.674C1144.04 385.674 1145.19 386.968 1145.19 388.262Z" fill="#E5E5E5"/>
<path d="M1194 388.262C1194 389.556 1192.85 390.85 1191.69 390.85C1190.54 390.85 1189.39 389.556 1189.39 388.262C1189.39 386.968 1190.54 385.674 1191.69 385.674C1193.23 385.674 1194 386.968 1194 388.262Z" fill="#E5E5E5"/>
<path d="M654.037 443.482C654.037 444.776 652.884 446.07 651.731 446.07C650.578 446.07 649.425 444.776 649.425 443.482C649.425 442.188 650.578 440.893 651.731 440.893C652.884 440.893 654.037 442.188 654.037 443.482Z" fill="#E5E5E5"/>
<path d="M703.229 443.482C703.229 444.776 702.076 446.07 700.923 446.07C699.77 446.07 698.617 444.776 698.617 443.482C698.617 442.188 699.77 440.893 700.923 440.893C702.076 440.893 703.229 442.188 703.229 443.482Z" fill="#E5E5E5"/>
<path d="M752.421 443.482C752.421 444.776 751.268 446.07 750.115 446.07C748.962 446.07 747.809 444.776 747.809 443.482C747.809 442.188 748.962 440.893 750.115 440.893C751.268 440.893 752.421 442.188 752.421 443.482Z" fill="#E5E5E5"/>
<path d="M801.614 443.482C801.614 444.776 800.461 446.07 799.308 446.07C798.155 446.07 797.002 444.776 797.002 443.482C797.002 442.188 798.155 440.893 799.308 440.893C800.461 440.893 801.614 442.188 801.614 443.482Z" fill="#E5E5E5"/>
<path d="M850.422 443.482C850.422 444.776 849.269 446.07 848.116 446.07C846.963 446.07 845.81 444.776 845.81 443.482C845.81 442.188 846.963 440.893 848.116 440.893C849.269 440.893 850.422 442.188 850.422 443.482Z" fill="#E5E5E5"/>
<path d="M899.615 443.482C899.615 444.776 898.462 446.07 897.309 446.07C896.156 446.07 895.003 444.776 895.003 443.482C895.003 442.188 896.156 440.893 897.309 440.893C898.462 440.893 899.615 442.188 899.615 443.482Z" fill="#E5E5E5"/>
<path d="M948.807 443.482C948.807 444.776 947.654 446.07 946.501 446.07C945.348 446.07 944.195 444.776 944.195 443.482C944.195 442.188 945.348 440.893 946.501 440.893C947.654 440.893 948.807 442.188 948.807 443.482Z" fill="#E5E5E5"/>
<path d="M997.615 443.482C997.615 444.776 996.462 446.07 995.309 446.07C994.156 446.07 993.003 444.776 993.003 443.482C993.003 442.188 994.156 440.893 995.309 440.893C996.847 440.893 997.615 442.188 997.615 443.482Z" fill="#E5E5E5"/>
<path d="M1046.81 443.482C1046.81 444.776 1045.65 446.07 1044.5 446.07C1043.35 446.07 1042.2 444.776 1042.2 443.482C1042.2 442.188 1043.35 440.893 1044.5 440.893C1045.65 440.893 1046.81 442.188 1046.81 443.482Z" fill="#E5E5E5"/>
<path d="M1096 443.482C1096 444.776 1094.85 446.07 1093.69 446.07C1092.54 446.07 1091.39 444.776 1091.39 443.482C1091.39 442.188 1092.54 440.893 1093.69 440.893C1094.85 440.893 1096 442.188 1096 443.482Z" fill="#E5E5E5"/>
<path d="M1145.19 443.482C1145.19 444.776 1144.04 446.07 1142.89 446.07C1141.73 446.07 1140.58 444.776 1140.58 443.482C1140.58 442.188 1141.73 440.893 1142.89 440.893C1144.04 440.893 1145.19 442.188 1145.19 443.482Z" fill="#E5E5E5"/>
<path d="M1194 443.482C1194 444.776 1192.85 446.07 1191.69 446.07C1190.54 446.07 1189.39 444.776 1189.39 443.482C1189.39 442.188 1190.54 440.893 1191.69 440.893C1193.23 440.893 1194 442.188 1194 443.482Z" fill="#E5E5E5"/>
<path d="M654.037 498.701C654.037 499.996 652.884 501.29 651.731 501.29C650.578 501.29 649.425 499.996 649.425 498.701C649.425 497.407 650.578 496.113 651.731 496.113C652.884 496.113 654.037 496.976 654.037 498.701Z" fill="#E5E5E5"/>
<path d="M703.229 498.701C703.229 499.996 702.076 501.29 700.923 501.29C699.77 501.29 698.617 499.996 698.617 498.701C698.617 497.407 699.77 496.113 700.923 496.113C702.076 496.113 703.229 496.976 703.229 498.701Z" fill="#E5E5E5"/>
<path d="M752.421 498.701C752.421 499.996 751.268 501.29 750.115 501.29C748.962 501.29 747.809 499.996 747.809 498.701C747.809 497.407 748.962 496.113 750.115 496.113C751.268 496.113 752.421 496.976 752.421 498.701Z" fill="#E5E5E5"/>
<path d="M801.614 498.701C801.614 499.996 800.461 501.29 799.308 501.29C798.155 501.29 797.002 499.996 797.002 498.701C797.002 497.407 798.155 496.113 799.308 496.113C800.461 496.113 801.614 496.976 801.614 498.701Z" fill="#E5E5E5"/>
<path d="M850.422 498.701C850.422 499.996 849.269 501.29 848.116 501.29C846.963 501.29 845.81 499.996 845.81 498.701C845.81 497.407 846.963 496.113 848.116 496.113C849.269 496.113 850.422 496.976 850.422 498.701Z" fill="#E5E5E5"/>
<path d="M899.615 498.701C899.615 499.996 898.462 501.29 897.309 501.29C896.156 501.29 895.003 499.996 895.003 498.701C895.003 497.407 896.156 496.113 897.309 496.113C898.462 496.113 899.615 496.976 899.615 498.701Z" fill="#E5E5E5"/>
<path d="M948.807 498.701C948.807 499.996 947.654 501.29 946.501 501.29C945.348 501.29 944.195 499.996 944.195 498.701C944.195 497.407 945.348 496.113 946.501 496.113C947.654 496.113 948.807 496.976 948.807 498.701Z" fill="#E5E5E5"/>
<path d="M997.615 498.701C997.615 499.996 996.462 501.29 995.309 501.29C994.156 501.29 993.003 499.996 993.003 498.701C993.003 497.407 994.156 496.113 995.309 496.113C996.847 496.113 997.615 496.976 997.615 498.701Z" fill="#E5E5E5"/>
<path d="M1046.81 498.701C1046.81 499.996 1045.65 501.29 1044.5 501.29C1043.35 501.29 1042.2 499.996 1042.2 498.701C1042.2 497.407 1043.35 496.113 1044.5 496.113C1045.65 496.113 1046.81 496.976 1046.81 498.701Z" fill="#E5E5E5"/>
<path d="M1096 498.701C1096 499.996 1094.85 501.29 1093.69 501.29C1092.54 501.29 1091.39 499.996 1091.39 498.701C1091.39 497.407 1092.54 496.113 1093.69 496.113C1094.85 496.113 1096 496.976 1096 498.701Z" fill="#E5E5E5"/>
<path d="M1145.19 498.701C1145.19 499.996 1144.04 501.29 1142.89 501.29C1141.73 501.29 1140.58 499.996 1140.58 498.701C1140.58 497.407 1141.73 496.113 1142.89 496.113C1144.04 496.113 1145.19 496.976 1145.19 498.701Z" fill="#E5E5E5"/>
<path d="M1194 498.701C1194 499.996 1192.85 501.29 1191.69 501.29C1190.54 501.29 1189.39 499.996 1189.39 498.701C1189.39 497.407 1190.54 496.113 1191.69 496.113C1193.23 496.113 1194 496.976 1194 498.701Z" fill="#E5E5E5"/>
<path d="M654.037 553.49C654.037 554.784 652.884 556.078 651.731 556.078C650.578 556.078 649.425 555.215 649.425 553.49C649.425 552.195 650.578 550.901 651.731 550.901C652.884 550.901 654.037 552.195 654.037 553.49Z" fill="#E5E5E5"/>
<path d="M703.229 553.49C703.229 554.784 702.076 556.078 700.923 556.078C699.77 556.078 698.617 554.784 698.617 553.49C698.617 552.195 699.77 550.901 700.923 550.901C702.076 550.901 703.229 552.195 703.229 553.49Z" fill="#E5E5E5"/>
<path d="M752.421 553.49C752.421 554.784 751.268 556.078 750.115 556.078C748.962 556.078 747.809 554.784 747.809 553.49C747.809 552.195 748.962 550.901 750.115 550.901C751.268 550.901 752.421 552.195 752.421 553.49Z" fill="#E5E5E5"/>
<path d="M801.614 553.49C801.614 554.784 800.461 556.078 799.308 556.078C798.155 556.078 797.002 554.784 797.002 553.49C797.002 552.195 798.155 550.901 799.308 550.901C800.461 550.901 801.614 552.195 801.614 553.49Z" fill="#E5E5E5"/>
<path d="M850.422 553.49C850.422 554.784 849.269 556.078 848.116 556.078C846.963 556.078 845.81 554.784 845.81 553.49C845.81 552.195 846.963 550.901 848.116 550.901C849.269 550.901 850.422 552.195 850.422 553.49Z" fill="#E5E5E5"/>
<path d="M899.615 553.49C899.615 554.784 898.462 556.078 897.309 556.078C896.156 556.078 895.003 554.784 895.003 553.49C895.003 552.195 896.156 550.901 897.309 550.901C898.462 550.901 899.615 552.195 899.615 553.49Z" fill="#E5E5E5"/>
<path d="M948.807 553.49C948.807 554.784 947.654 556.078 946.501 556.078C945.348 556.078 944.195 554.784 944.195 553.49C944.195 552.195 945.348 550.901 946.501 550.901C947.654 550.901 948.807 552.195 948.807 553.49Z" fill="#E5E5E5"/>
<path d="M997.615 553.49C997.615 554.784 996.462 556.078 995.309 556.078C994.156 556.078 993.003 554.784 993.003 553.49C993.003 552.195 994.156 550.901 995.309 550.901C996.847 550.901 997.615 552.195 997.615 553.49Z" fill="#E5E5E5"/>
<path d="M1046.81 553.49C1046.81 554.784 1045.65 556.078 1044.5 556.078C1043.35 556.078 1042.2 554.784 1042.2 553.49C1042.2 552.195 1043.35 550.901 1044.5 550.901C1045.65 550.901 1046.81 552.195 1046.81 553.49Z" fill="#E5E5E5"/>
<path d="M1096 553.49C1096 554.784 1094.85 556.078 1093.69 556.078C1092.54 556.078 1091.39 554.784 1091.39 553.49C1091.39 552.195 1092.54 550.901 1093.69 550.901C1094.85 550.901 1096 552.195 1096 553.49Z" fill="#E5E5E5"/>
<path d="M1145.19 553.49C1145.19 554.784 1144.04 556.078 1142.89 556.078C1141.73 556.078 1140.58 554.784 1140.58 553.49C1140.58 552.195 1141.73 550.901 1142.89 550.901C1144.04 550.901 1145.19 552.195 1145.19 553.49Z" fill="#E5E5E5"/>
<path d="M1194 553.49C1194 554.784 1192.85 556.078 1191.69 556.078C1190.54 556.078 1189.39 554.784 1189.39 553.49C1189.39 552.195 1190.54 550.901 1191.69 550.901C1193.23 550.901 1194 552.195 1194 553.49Z" fill="#E5E5E5"/>
<path d="M654.037 608.709C654.037 610.003 652.884 611.297 651.731 611.297C650.578 611.297 649.425 610.435 649.425 608.709C649.425 607.415 650.578 606.121 651.731 606.121C652.884 606.121 654.037 607.415 654.037 608.709Z" fill="#E5E5E5"/>
<path d="M703.229 608.709C703.229 610.003 702.076 611.297 700.923 611.297C699.77 611.297 698.617 610.003 698.617 608.709C698.617 607.415 699.77 606.121 700.923 606.121C702.076 606.121 703.229 607.415 703.229 608.709Z" fill="#E5E5E5"/>
<path d="M752.421 608.709C752.421 610.003 751.268 611.297 750.115 611.297C748.962 611.297 747.809 610.003 747.809 608.709C747.809 607.415 748.962 606.121 750.115 606.121C751.268 606.121 752.421 607.415 752.421 608.709Z" fill="#E5E5E5"/>
<path d="M801.614 608.709C801.614 610.003 800.461 611.297 799.308 611.297C798.155 611.297 797.002 610.003 797.002 608.709C797.002 607.415 798.155 606.121 799.308 606.121C800.461 606.121 801.614 607.415 801.614 608.709Z" fill="#E5E5E5"/>
<path d="M850.422 608.709C850.422 610.003 849.269 611.297 848.116 611.297C846.963 611.297 845.81 610.003 845.81 608.709C845.81 607.415 846.963 606.121 848.116 606.121C849.269 606.121 850.422 607.415 850.422 608.709Z" fill="#E5E5E5"/>
<path d="M899.615 608.709C899.615 610.003 898.462 611.297 897.309 611.297C896.156 611.297 895.003 610.003 895.003 608.709C895.003 607.415 896.156 606.121 897.309 606.121C898.462 606.121 899.615 607.415 899.615 608.709Z" fill="#E5E5E5"/>
<path d="M948.807 608.709C948.807 610.003 947.654 611.297 946.501 611.297C945.348 611.297 944.195 610.003 944.195 608.709C944.195 607.415 945.348 606.121 946.501 606.121C947.654 606.121 948.807 607.415 948.807 608.709Z" fill="#E5E5E5"/>
<path d="M997.615 608.709C997.615 610.003 996.462 611.297 995.309 611.297C994.156 611.297 993.003 610.003 993.003 608.709C993.003 607.415 994.156 606.121 995.309 606.121C996.847 606.121 997.615 607.415 997.615 608.709Z" fill="#E5E5E5"/>
<path d="M1046.81 608.709C1046.81 610.003 1045.65 611.297 1044.5 611.297C1043.35 611.297 1042.2 610.003 1042.2 608.709C1042.2 607.415 1043.35 606.121 1044.5 606.121C1045.65 606.121 1046.81 607.415 1046.81 608.709Z" fill="#E5E5E5"/>
<path d="M1096 608.709C1096 610.003 1094.85 611.297 1093.69 611.297C1092.54 611.297 1091.39 610.003 1091.39 608.709C1091.39 607.415 1092.54 606.121 1093.69 606.121C1094.85 606.121 1096 607.415 1096 608.709Z" fill="#E5E5E5"/>
<path d="M1145.19 608.709C1145.19 610.003 1144.04 611.297 1142.89 611.297C1141.73 611.297 1140.58 610.003 1140.58 608.709C1140.58 607.415 1141.73 606.121 1142.89 606.121C1144.04 606.121 1145.19 607.415 1145.19 608.709Z" fill="#E5E5E5"/>
<path d="M1194 608.709C1194 610.003 1192.85 611.297 1191.69 611.297C1190.54 611.297 1189.39 610.003 1189.39 608.709C1189.39 607.415 1190.54 606.121 1191.69 606.121C1193.23 606.121 1194 607.415 1194 608.709Z" fill="#E5E5E5"/>
</svg>
