<svg width="82" height="82" viewBox="0 0 82 82" fill="none" xmlns="http://www.w3.org/2000/svg">
<path d="M69.5563 52.8284C65.1577 48.4299 59.9222 45.1738 54.21 43.2026C60.328 38.9889 64.3474 31.9369 64.3474 23.9628C64.3474 11.0891 53.8737 0.615479 41 0.615479C28.1263 0.615479 17.6526 11.0891 17.6526 23.9628C17.6526 31.9369 21.672 38.9889 27.7901 43.2026C22.0779 45.1738 16.8424 48.4299 12.4438 52.8284C4.81618 60.4562 0.615387 70.5976 0.615387 81.3847H6.92548C6.92548 62.5959 22.2112 47.3102 41 47.3102C59.7888 47.3102 75.0745 62.5959 75.0745 81.3847H81.3846C81.3846 70.5976 77.1838 60.4562 69.5563 52.8284ZM41 41.0001C31.6057 41.0001 23.9627 33.3573 23.9627 23.9628C23.9627 14.5684 31.6057 6.92557 41 6.92557C50.3943 6.92557 58.0373 14.5684 58.0373 23.9628C58.0373 33.3573 50.3943 41.0001 41 41.0001Z" fill="#2E266F"/>
</svg>
