<svg width="15" height="15" viewBox="0 0 15 15" fill="none" xmlns="http://www.w3.org/2000/svg">
<path d="M7.49997 15C3.36444 15 0 11.6356 0 7.50003C0 3.36449 3.36444 5.43594e-05 7.49997 5.43594e-05C11.6355 5.43594e-05 14.9999 3.36449 14.9999 7.50003C14.9999 11.6356 11.6355 15 7.49997 15ZM7.49997 0.975733C3.9025 0.975733 0.975733 3.9025 0.975733 7.50003C0.975733 11.0976 3.9025 14.0243 7.49997 14.0243C11.0974 14.0243 14.0242 11.0975 14.0242 7.50003C14.0242 3.90255 11.0975 0.975733 7.49997 0.975733Z" fill="black"/>
<path d="M10.5595 6.27782C10.3325 6.42294 10.0308 6.35664 9.88562 6.12973C9.41434 5.39289 8.61158 4.95299 7.73824 4.95299C6.33384 4.95299 5.19131 6.09558 5.19131 7.49998C5.19131 8.90439 6.33384 10.047 7.73824 10.047C8.58567 10.047 9.37531 9.62703 9.8506 8.92363C10.0014 8.70046 10.3046 8.6417 10.528 8.79256C10.7512 8.94336 10.8099 9.24665 10.659 9.46993C10.0022 10.4423 8.91021 11.0227 7.73824 11.0227C5.79583 11.0227 4.21558 9.44245 4.21558 7.49998C4.21558 5.55752 5.79583 3.97726 7.73824 3.97726C8.94604 3.97726 10.0561 4.58536 10.7076 5.60397C10.8528 5.83094 10.7865 6.1326 10.5595 6.27782Z" fill="black"/>
</svg>
